<?xml version="1.0" encoding="UTF-8"?>
<svg version="1.1" xmlns="http://www.w3.org/2000/svg" width="1591" height="354">
<path d="M0 0 C1.01528229 -0.00367669 2.03056459 -0.00735338 3.07661301 -0.01114148 C6.48329583 -0.02216629 9.88994814 -0.02602017 13.29664612 -0.02983093 C15.73769223 -0.03609659 18.17873738 -0.04274349 20.61978149 -0.04974365 C27.94893732 -0.0689614 35.27808504 -0.07957145 42.60725865 -0.08847144 C46.06374567 -0.09286009 49.52023117 -0.09822548 52.976717 -0.10346031 C64.47617875 -0.12047122 75.97563956 -0.1349629 87.47511196 -0.14220905 C90.45729003 -0.14411877 93.43946808 -0.14603913 96.42164612 -0.147995 C97.53337688 -0.14872061 97.53337688 -0.14872061 98.66756684 -0.14946087 C110.65971205 -0.15775188 122.65175721 -0.18307365 134.64385878 -0.21557567 C146.97252196 -0.24871573 159.30113442 -0.26666416 171.62984234 -0.26985329 C178.54515576 -0.27201221 185.46032336 -0.28066941 192.37559319 -0.30631447 C198.88696853 -0.33040666 205.39815334 -0.3338037 211.90956688 -0.32355309 C214.29189679 -0.32305907 216.67423983 -0.32933967 219.05653 -0.34310913 C240.63792712 -0.46080948 257.4461594 2.36391946 273.75587463 17.83857727 C287.9671806 32.44532827 293.16217375 49.89847987 293.14241028 69.88508606 C293.14686696 71.31173246 293.14686696 71.31173246 293.15141368 72.76719999 C293.16005158 75.93878793 293.16160477 79.1103379 293.1631012 82.28193665 C293.16773291 84.56254659 293.17275805 86.84315576 293.17814636 89.12376404 C293.19123981 95.31011744 293.19770956 101.49646 293.20215702 107.68282509 C293.20509317 111.55313893 293.20919903 115.42344984 293.21366119 119.29376221 C293.22576486 130.03072781 293.2361482 140.76768956 293.23953629 151.50466156 C293.23975585 152.19077663 293.23997542 152.8768917 293.24020164 153.58379814 C293.24041991 154.27146382 293.24063819 154.9591295 293.24086308 155.66763353 C293.24130654 157.0608778 293.2417531 158.45412207 293.24220276 159.84736633 C293.24242419 160.53844921 293.24264562 161.22953209 293.24287376 161.94155687 C293.2468165 173.12382672 293.26425698 184.3060312 293.28756228 195.48827583 C293.31135164 206.99665803 293.3234843 218.50499822 293.3249042 230.01340628 C293.32594904 236.46369801 293.33178821 242.91389749 293.34972382 249.36416626 C293.36628488 255.43811204 293.36832115 261.51189699 293.35958481 267.58585739 C293.35881868 269.80447701 293.36310061 272.02310556 293.37304306 274.24170303 C293.47402576 298.19691541 290.73312508 318.52815575 273.75196838 336.83467102 C263.8169939 346.18655445 249.6515749 354.24063194 235.65012741 354.28418541 C234.34670855 354.29179722 234.34670855 354.29179722 233.016958 354.29956281 C231.59170031 354.30030945 231.59170031 354.30030945 230.13764954 354.30107117 C229.1246328 354.30545342 228.11161606 354.30983567 227.06790185 354.31435072 C223.66278413 354.3277383 220.2576923 354.33391764 216.85255432 354.34004211 C214.41490054 354.3479434 211.97724793 354.35621237 209.53959656 354.36482239 C202.21446575 354.38878399 194.88933921 354.40397458 187.56418264 354.41688246 C185.49288062 354.4205968 183.42157926 354.42456987 181.3502779 354.42863512 C168.47171892 354.45388305 155.59315881 354.47592367 142.71458054 354.48836327 C139.73225145 354.49129271 136.74992239 354.4942544 133.76759338 354.49726868 C133.02639866 354.49801473 132.28520394 354.49876078 131.52154878 354.49952944 C119.53713264 354.51216028 107.55286564 354.54535286 95.56851909 354.58707051 C83.24665902 354.62960884 70.924875 354.65307231 58.60294175 354.65828383 C51.69198239 354.6616854 44.78125569 354.67329056 37.87036896 354.70638657 C31.35979664 354.73751507 24.84951739 354.7427375 18.33887863 354.73100281 C15.95899572 354.73078301 13.57909346 354.73900953 11.19927597 354.75665665 C-10.7981463 354.91079294 -28.26979174 351.33676503 -44.87303162 335.89717102 C-62.36574615 317.19918565 -63.3031793 295.54239786 -63.27268982 271.44477844 C-63.2770434 269.16343012 -63.2822287 266.88208325 -63.28817749 264.60073853 C-63.30150939 258.4353248 -63.30215263 252.26997259 -63.29961419 246.10454726 C-63.29854049 240.94337136 -63.30343803 235.78220771 -63.30821961 230.62103444 C-63.31992674 217.74206253 -63.31910124 204.86312967 -63.3126628 191.98415611 C-63.30749658 180.83453205 -63.31874626 169.68499544 -63.33776102 158.53538867 C-63.35719715 147.04944247 -63.3650948 135.56354788 -63.36163777 124.07758409 C-63.35983123 117.64414146 -63.36239804 111.21077892 -63.37635231 104.77734947 C-63.38899252 98.72384671 -63.38692821 92.67051806 -63.37394142 86.61701775 C-63.37158951 84.40646046 -63.37426007 82.19589068 -63.38256454 79.98534775 C-63.46216593 57.13331307 -61.29980322 36.0118665 -44.93553162 18.52217102 C-32.20982932 6.44684534 -17.52599572 -0.00340613 0 0 Z M-33.20896912 37.66670227 C-43.28011951 51.62997848 -42.29004787 67.93075131 -42.25682068 84.33467102 C-42.25953372 86.58442803 -42.2630964 88.83418415 -42.2674408 91.0839386 C-42.27652982 97.17063084 -42.27303492 103.25725499 -42.26668262 109.34394836 C-42.26160457 115.72627439 -42.26631909 122.10859475 -42.26945496 128.49092102 C-42.27332186 139.89267288 -42.2671226 151.29438716 -42.25693628 162.69613266 C-42.24800186 173.01576489 -42.24955425 183.3353521 -42.2587738 193.65498352 C-42.26949776 205.66399535 -42.27344973 217.67297322 -42.26754928 229.68199158 C-42.26443785 236.02977071 -42.26399748 242.3775189 -42.27062225 248.72529602 C-42.27641694 254.69418917 -42.27235997 260.66299767 -42.26083374 266.63188171 C-42.25819851 268.81712199 -42.25893273 271.00236943 -42.26335907 273.18760681 C-42.29753207 291.77826377 -41.77744832 307.89981289 -28.19725037 322.17842102 C-19.06277069 330.35564617 -8.78634243 333.61400572 3.27342224 333.53485107 C4.26973762 333.54023661 5.26605299 333.54562215 6.29255974 333.55117089 C9.61102563 333.56540965 12.92909033 333.55835669 16.24757385 333.55122375 C18.63496724 333.55692946 21.02235789 333.56389449 23.40974426 333.57202148 C29.20952806 333.58808665 35.00918735 333.59005787 40.80898868 333.58480858 C45.52598676 333.58075791 50.24295292 333.58222106 54.95994949 333.58755684 C55.63274227 333.58830526 56.30553506 333.58905368 56.9987155 333.58982478 C58.36574665 333.59135635 59.7327778 333.5928947 61.09980895 333.59443975 C73.90382626 333.60815037 86.70778238 333.60273737 99.51179828 333.59125454 C111.20826866 333.58132492 122.90458078 333.59426064 134.60102676 333.61818873 C146.63036325 333.64261114 158.65962613 333.65217982 170.6889869 333.64553601 C177.43477807 333.64205059 184.1804476 333.64423082 190.92621994 333.66178703 C197.27107516 333.67727591 203.61562872 333.67327861 209.96047211 333.65448189 C212.28439146 333.65080138 214.60833326 333.65388868 216.9322319 333.66436768 C220.11401533 333.67761582 223.29480569 333.66599543 226.47654724 333.64837646 C227.38775829 333.65798147 228.29896934 333.66758648 229.23779285 333.67748255 C240.70253258 333.54759877 250.80613004 328.88364341 259.16212463 321.14717102 C269.3788353 310.45304397 272.33009431 297.61152706 272.25593567 283.20429993 C272.25905565 282.25542719 272.26217563 281.30655445 272.26539016 280.32892799 C272.27331178 277.17713166 272.26706939 274.02553099 272.26075745 270.87373352 C272.2634699 268.60279732 272.26703226 266.33186201 272.27137756 264.06092834 C272.28047353 257.91226279 272.27696881 251.76366456 272.27061939 245.61499786 C272.26554496 239.17080508 272.27025486 232.72661794 272.27339172 226.28242493 C272.27725981 214.76946723 272.27105656 203.25654387 272.26087305 191.74359155 C272.25193845 181.32016021 272.25349077 170.89677343 272.26271057 160.4733429 C272.27343095 148.3478849 272.2773884 136.22246184 272.27148604 124.09699821 C272.26837298 117.68607896 272.26793879 111.27519034 272.27455902 104.86427307 C272.28034933 98.83630071 272.27630468 92.80841224 272.26477051 86.78044891 C272.26213295 84.57221363 272.26287352 82.36397126 272.26729584 80.15573883 C272.27278844 77.13374559 272.26587221 74.11201856 272.25593567 71.09004211 C272.26039711 70.22329172 272.26485856 69.35654133 272.26945519 68.46352577 C272.17963047 54.30836708 267.99395512 42.59584271 258.22462463 32.26826477 C251.38631308 25.79354443 242.29191176 21.0362587 232.72986507 21.01294994 C231.87873605 21.0084921 231.02760702 21.00403426 230.1506862 20.99944133 C229.2204495 20.99962569 228.2902128 20.99981005 227.33178711 21 C226.33974386 20.99632331 225.34770061 20.99264662 224.32559544 20.98885852 C220.99172171 20.97781994 217.65787914 20.97397751 214.32398987 20.97016907 C211.93733623 20.9639045 209.55068357 20.95725771 207.16403198 20.95025635 C199.99465701 20.93102838 192.82528148 20.92042747 185.65588793 20.91152856 C182.27671552 20.90714209 178.89754467 20.90177616 175.51837349 20.89653969 C164.27972839 20.87952825 153.04108425 20.86503559 141.80242825 20.85779095 C138.8870894 20.85588116 135.97175056 20.85396081 133.05641174 20.852005 C132.33184916 20.85152126 131.60728658 20.85103752 130.86076755 20.85053913 C119.13165863 20.84224446 107.40265189 20.81691672 95.67358755 20.78442433 C83.62182351 20.75131121 71.57011131 20.7333383 59.51830155 20.73014671 C52.75565095 20.72798539 45.99314929 20.71929266 39.23054314 20.69368553 C32.86526062 20.6703858 26.50024569 20.66617949 20.13493156 20.67644691 C17.80294403 20.67694193 15.47094323 20.67063166 13.13899612 20.65689087 C9.94602424 20.63913443 6.75400874 20.64629725 3.56103516 20.65942383 C2.18910268 20.64296996 2.18910268 20.64296996 0.7894544 20.62618369 C-12.88868195 20.76118815 -24.5181594 27.33121741 -33.20896912 37.66670227 Z " fill="#B8F14C" transform="translate(62.99803161621094,-0.1471710205078125)"/>
<path d="M0 0 C63.33466229 0 63.33466229 0 75.78125 10.76953125 C84.99603484 20.03298572 89.73359899 31.10258705 90.3125 44.0625 C90.15017147 54.93851149 86.46174627 63.34477871 79.609375 71.66015625 C77.62219737 74.07596655 77.62219737 74.07596655 78 78 C79.42718713 80.56605866 79.42718713 80.56605866 81.3125 83.1875 C88.99914874 94.83393749 90.5580112 107.53294124 87.80859375 121.109375 C84.0729579 134.46382199 75.59027815 144.18741282 64.06640625 151.52734375 C43.66071378 161.32727504 23.62583579 156 0 156 C0 104.52 0 53.04 0 0 Z M28 27 C28 38.22 28 49.44 28 61 C33.259375 61.12375 33.259375 61.12375 38.625 61.25 C40.265896 61.30462402 40.265896 61.30462402 41.93994141 61.36035156 C49.55685017 61.44698674 52.78256182 60.1280649 58.25 54.8125 C61.36108871 49.812536 62.32495105 45.13023467 61.4375 39.3125 C59.36313655 34.53244509 56.86397678 31.24167732 52.5078125 28.33984375 C47.64637985 26.48297137 43.27304583 26.67752803 38.125 26.8125 C34.78375 26.874375 31.4425 26.93625 28 27 Z M28 89 C28 101.87 28 114.74 28 128 C43.67285326 129.25127983 43.67285326 129.25127983 54.9609375 122.18359375 C55.42757813 121.60738281 55.89421875 121.03117187 56.375 120.4375 C56.85710937 119.85871094 57.33921875 119.27992188 57.8359375 118.68359375 C61.01436639 114.08660431 60.62718689 108.33108855 60 103 C57.94825357 97.29537793 54.24715215 93.9916014 49.16015625 90.91015625 C42.40539581 88.06411795 35.19662786 89 28 89 Z " fill="#B8F14C" transform="translate(1091,143)"/>
<path d="M0 0 C63.33466229 0 63.33466229 0 75.78125 10.76953125 C84.99603484 20.03298572 89.73359899 31.10258705 90.3125 44.0625 C90.15017147 54.93851149 86.46174627 63.34477871 79.609375 71.66015625 C77.62219737 74.07596655 77.62219737 74.07596655 78 78 C79.42718713 80.56605866 79.42718713 80.56605866 81.3125 83.1875 C88.99914874 94.83393749 90.5580112 107.53294124 87.80859375 121.109375 C84.0729579 134.46382199 75.59027815 144.18741282 64.06640625 151.52734375 C43.66071378 161.32727504 23.62583579 156 0 156 C0 104.52 0 53.04 0 0 Z M28 27 C28 38.22 28 49.44 28 61 C33.259375 61.12375 33.259375 61.12375 38.625 61.25 C40.265896 61.30462402 40.265896 61.30462402 41.93994141 61.36035156 C49.55685017 61.44698674 52.78256182 60.1280649 58.25 54.8125 C61.36108871 49.812536 62.32495105 45.13023467 61.4375 39.3125 C59.36313655 34.53244509 56.86397678 31.24167732 52.5078125 28.33984375 C47.64637985 26.48297137 43.27304583 26.67752803 38.125 26.8125 C34.78375 26.874375 31.4425 26.93625 28 27 Z M28 89 C28 101.87 28 114.74 28 128 C43.67285326 129.25127983 43.67285326 129.25127983 54.9609375 122.18359375 C55.42757812 121.60738281 55.89421875 121.03117187 56.375 120.4375 C56.85710938 119.85871094 57.33921875 119.27992188 57.8359375 118.68359375 C61.01436639 114.08660431 60.62718689 108.33108855 60 103 C57.94825357 97.29537793 54.24715215 93.9916014 49.16015625 90.91015625 C42.40539581 88.06411795 35.19662786 89 28 89 Z " fill="#B8F14C" transform="translate(487,143)"/>
<path d="M0 0 C66.67148014 0 66.67148014 0 80 13 C89.6307011 23.26040079 92.44768023 34.4077007 92.21484375 48.20703125 C91.55973036 59.77276034 85.75892972 68.92372295 79 78 C79.38671875 78.53367187 79.7734375 79.06734375 80.171875 79.6171875 C88.24141313 91.16221977 90.15778834 101.26125789 90.1328125 115.14453125 C90.13376923 116.31006027 90.13472595 117.47558929 90.13571167 118.67643738 C90.13639057 121.13154149 90.13455656 123.58664741 90.13037109 126.04174805 C90.12499461 129.81628391 90.13033829 133.59070208 90.13671875 137.36523438 C90.13605839 139.75000026 90.13477811 142.13476608 90.1328125 144.51953125 C90.13483673 145.65485794 90.13686096 146.79018463 90.13894653 147.95991516 C90.13421829 149.52240242 90.13421829 149.52240242 90.12939453 151.11645508 C90.12859894 152.03767654 90.12780334 152.95889801 90.12698364 153.90803528 C90 156 90 156 89 157 C87.00035018 157.08758003 84.9976389 157.10696576 82.99609375 157.09765625 C81.78115234 157.09443359 80.56621094 157.09121094 79.31445312 157.08789062 C78.03505859 157.07951172 76.75566406 157.07113281 75.4375 157.0625 C74.15423828 157.05798828 72.87097656 157.05347656 71.54882812 157.04882812 C68.36583978 157.03699545 65.18294238 157.02051068 62 157 C61.99413376 156.39136108 61.98826752 155.78272217 61.98222351 155.15563965 C61.91807261 148.79584279 61.8335976 142.43654183 61.73754883 136.07714844 C61.70438427 133.70677242 61.67632622 131.33631905 61.65356445 128.96582031 C61.61986312 125.54979624 61.56753791 122.1344757 61.51171875 118.71875 C61.50532883 117.66635132 61.4989389 116.61395264 61.49235535 115.52966309 C61.32873752 107.26011583 60.10315637 100.10315637 54 94 C48.71639114 90.68219224 43.69255007 90.28422822 37.625 89.8125 C36.69816406 89.73064453 35.77132813 89.64878906 34.81640625 89.56445312 C32.54497113 89.36540984 30.27319644 89.17758351 28 89 C28.00222061 89.83716049 28.00444122 90.67432098 28.00672913 91.53684998 C28.02673032 99.40967414 28.04197325 107.28248983 28.05181217 115.15533352 C28.05704041 119.20325742 28.06413699 123.25116041 28.07543945 127.29907227 C28.08627043 131.20235971 28.09227728 135.10562699 28.09487724 139.0089283 C28.09673111 140.50133647 28.100351 141.99374348 28.10573006 143.48614311 C28.11294331 145.56948139 28.11399083 147.65273531 28.11352539 149.73608398 C28.115746 150.92411118 28.11796661 152.11213837 28.12025452 153.33616638 C28 156 28 156 27 157 C18.09 157 9.18 157 0 157 C0 105.19 0 53.38 0 0 Z M28 27 C28 38.55 28 50.1 28 62 C30.949375 62.061875 33.89875 62.12375 36.9375 62.1875 C37.84749756 62.21481201 38.75749512 62.24212402 39.69506836 62.27026367 C46.85308588 62.34186694 53.20123445 61.25118099 58.875 56.6875 C62.58620497 51.99391725 64.6101364 48.16653808 64.3515625 42.01953125 C63.52931705 37.29618793 61.01824594 33.9660282 57.5625 30.6875 C53.2924362 27.87550676 49.8116955 26.74489245 44.69921875 26.8046875 C43.81838623 26.80968262 42.93755371 26.81467773 42.0300293 26.81982422 C40.92699463 26.83803223 39.82395996 26.85624023 38.6875 26.875 C35.160625 26.91625 31.63375 26.9575 28 27 Z " fill="#B8F04D" transform="translate(1394,143)"/>
<path d="M0 0 C62.3866171 0 62.3866171 0 76.21875 13.1015625 C88.31840527 25.87843728 89.31672271 39.81165245 89.30078125 56.5546875 C89.30467579 58.26425275 89.309012 59.97381705 89.31376648 61.68338013 C89.32119933 65.25558619 89.32095888 68.82769338 89.31567383 72.39990234 C89.309884 76.95111083 89.32681271 81.50191172 89.3500185 86.0530529 C89.36483406 89.5809257 89.36561695 93.10870209 89.36250877 96.63660049 C89.36301809 98.31333345 89.36818166 99.99007237 89.37832069 101.66677475 C89.46534507 118.06881286 86.9853901 131.78391977 75.5 144.25 C54.71434691 164.0563898 28.18174824 157 0 157 C0 105.19 0 53.38 0 0 Z M28 28 C28 61.33 28 94.66 28 129 C44.4710711 130.07312348 44.4710711 130.07312348 56.875 122.1875 C60.50547955 116.74178068 61.24965653 111.43509379 61.2746582 104.98242188 C61.27976913 104.31964737 61.28488007 103.65687286 61.29014587 102.97401428 C61.30392978 100.80549838 61.30309402 98.63730422 61.30078125 96.46875 C61.30467366 94.94852584 61.30900945 93.42830276 61.31376648 91.90808105 C61.32120408 88.73083968 61.32095486 85.55370949 61.31567383 82.37646484 C61.30987504 78.31802722 61.3268317 74.26004535 61.3500185 70.20168304 C61.36479342 67.06513844 61.36562258 63.92870276 61.36250877 60.79212952 C61.36301985 59.29630123 61.36821734 57.8004665 61.37832069 56.30467224 C61.39074494 54.20867758 61.38385945 52.11356016 61.37231445 50.01757812 C61.37294388 48.82845825 61.3735733 47.63933838 61.3742218 46.41418457 C60.65880417 39.8871254 58.08389718 35.25628601 53 31 C45.28568122 26.58382361 45.28568122 26.58382361 28 28 Z " fill="#B8F14D" transform="translate(1502,143)"/>
<path d="M0 0 C0.83072021 0.00829834 1.66144043 0.01659668 2.51733398 0.02514648 C13.56279566 0.32798332 22.28356017 4.17505239 30.625 11.4375 C40.5916565 21.98941785 44.93292597 32.72400363 44.91552734 47.14746094 C44.92224457 47.96670044 44.92896179 48.78593994 44.93588257 49.63000488 C44.95471952 52.31069173 44.95877957 54.99112628 44.9609375 57.671875 C44.9673757 59.55601093 44.97410479 61.44014588 44.98110962 63.32427979 C44.99304693 67.26471267 44.99679414 71.20505813 44.99560547 75.14550781 C44.99540256 80.16293229 45.02269138 85.17978859 45.05714989 90.1970787 C45.07952859 94.08704132 45.08343965 97.9768696 45.08238602 101.86688995 C45.08472601 103.71502895 45.09345776 105.56317256 45.10905075 107.41124725 C45.23978713 124.50674383 42.94731383 137.16348348 30.97265625 150.2421875 C20.67924353 159.95675305 8.87601644 161.92224618 -4.5859375 161.71484375 C-15.58246791 161.28364933 -23.07850791 156.22956428 -31 149.0625 C-40.08146899 139.0250869 -44.51630125 129.79080233 -44.53613281 116.14990234 C-44.54109772 115.32803436 -44.54606262 114.50616638 -44.55117798 113.65939331 C-44.56575009 110.94739941 -44.5725946 108.23546408 -44.578125 105.5234375 C-44.58388207 103.62879435 -44.58963973 101.7341512 -44.59539795 99.83950806 C-44.60589495 95.8667982 -44.61174562 91.89410849 -44.61523438 87.92138672 C-44.62070558 82.85444185 -44.64470972 77.78776752 -44.67320633 72.72090721 C-44.69192211 68.80530037 -44.69704313 64.88975742 -44.69857025 60.97410965 C-44.70157895 59.10757601 -44.70954652 57.24104301 -44.72275543 55.37455368 C-44.83135347 38.84447398 -43.09433823 25.03426837 -31.453125 12.35546875 C-22.45116672 4.04727042 -12.16526346 -0.15805509 0 0 Z M-10.984375 31.76953125 C-15.82891584 37.16976942 -16.67476602 43.06899702 -16.66552734 50.06005859 C-16.67224457 50.79910934 -16.67896179 51.5381601 -16.68588257 52.29960632 C-16.70478863 54.72845288 -16.70878288 57.15702206 -16.7109375 59.5859375 C-16.71737022 61.2845572 -16.72409893 62.9831758 -16.73110962 64.68179321 C-16.74306364 68.23743253 -16.74679234 71.79297483 -16.74560547 75.34863281 C-16.74540231 79.89023392 -16.77270982 84.4312091 -16.80714989 88.97266197 C-16.82945714 92.47983624 -16.83344185 95.98686073 -16.83238602 99.49409866 C-16.83473601 101.16774275 -16.84352544 102.84139133 -16.85905075 104.51496506 C-17.14529892 116.59542289 -17.14529892 116.59542289 -12.375 127.4375 C-8.6539908 131.19545825 -5.469811 133.57729352 -0.125 133.75 C4.55463108 133.68250532 7.0237754 132.54764852 10.625 129.4375 C15.66937416 124.20174037 16.77484742 120.19120606 16.78613281 113.0637207 C16.79109772 112.31535446 16.79606262 111.56698822 16.80117798 110.79594421 C16.81578973 108.31838053 16.82260123 105.84088096 16.828125 103.36328125 C16.83387887 101.6379547 16.83963657 99.91262816 16.84539795 98.18730164 C16.85590624 94.56667788 16.8617495 90.94607631 16.86523438 87.32543945 C16.87070766 82.69980541 16.89471133 78.07446742 16.92320633 73.44892597 C16.94189111 69.88257511 16.94704149 66.31629458 16.94857025 62.74989891 C16.95158598 61.04555843 16.95957784 59.34121886 16.97275543 57.63692665 C16.98993264 55.24381089 16.98790723 52.85140542 16.98144531 50.45825195 C16.9906601 49.76236969 16.99987488 49.06648743 17.0093689 48.34951782 C16.9536829 41.72051814 15.4630872 36.40382584 10.9375 31.5625 C3.65447897 26.8903733 -3.88009974 25.88953643 -10.984375 31.76953125 Z " fill="#B8F14D" transform="translate(1236.375,140.5625)"/>
<path d="M0 0 C9.24 0 18.48 0 28 0 C28.01458252 3.47732666 28.02916504 6.95465332 28.04418945 10.53735352 C28.09453461 22.0286158 28.16098002 33.51975361 28.23571491 45.01088047 C28.28063223 51.97769722 28.32005615 58.94446331 28.34643555 65.91137695 C28.37191044 72.63529639 28.41284238 79.35895973 28.46318626 86.08274651 C28.47986642 88.64752329 28.49137352 91.21233912 28.49761391 93.77716255 C28.50724209 97.37064379 28.53528778 100.96354605 28.56762695 104.55688477 C28.56547432 106.14616287 28.56547432 106.14616287 28.5632782 107.76754761 C28.65752865 115.17688187 29.48523106 120.17855192 34.5625 125.875 C38.72083978 129.5002193 41.85480976 129.33758053 47.234375 129.28125 C51.0998786 128.88814794 53.16856481 127.61907755 56 125 C59.26963107 120.49016404 60.11664954 116.60226022 60.15821838 111.11517334 C60.1680072 110.13363281 60.17779602 109.15209229 60.18788147 108.14080811 C60.19363693 107.07050354 60.1993924 106.00019897 60.20532227 104.89746094 C60.21522186 103.76546265 60.22512146 102.63346436 60.23532104 101.46716309 C60.26692597 97.72292172 60.29168963 93.97866766 60.31640625 90.234375 C60.33697663 87.63933989 60.35797313 85.04430813 60.37937927 82.44927979 C60.42894694 76.31538938 60.47421456 70.18148102 60.51740164 64.04754281 C60.56681539 57.06327184 60.62171815 50.0790474 60.67708123 43.09482145 C60.79082702 28.72992321 60.89695755 14.36497891 61 0 C70.24 0 79.48 0 89 0 C89.09052364 15.69958388 89.16411126 31.39895875 89.20724869 47.09872818 C89.22781638 54.38948199 89.25582503 61.68006134 89.30175781 68.97070312 C89.34180426 75.3301092 89.36747485 81.68938885 89.37635398 88.04891753 C89.381539 91.41196034 89.39574584 94.77435699 89.42292023 98.13733673 C89.45213887 101.90459754 89.45594813 105.6711199 89.45410156 109.43847656 C89.46848267 110.53612335 89.48286377 111.63377014 89.49768066 112.76467896 C89.42806788 125.96930644 84.95036887 136.64914519 75.8984375 146.22265625 C66.93999997 154.69043731 56.89711887 158.78181378 44.625 159.3125 C31.87452543 158.95206256 21.29992043 153.77555904 12.07421875 145.2421875 C4.69337616 137.26364956 -0.13156707 126.69908635 -0.12025452 115.80509949 C-0.12162918 114.78011353 -0.12300385 113.75512756 -0.12442017 112.69908142 C-0.11902725 111.02888695 -0.11902725 111.02888695 -0.11352539 109.32495117 C-0.11367142 108.144039 -0.11381744 106.96312683 -0.1139679 105.74642944 C-0.11339153 102.51747225 -0.10838389 99.28855866 -0.10139394 96.05961013 C-0.09513323 92.68169454 -0.09455445 89.30377804 -0.09336853 85.92585754 C-0.09026322 79.53343373 -0.08206063 73.14102706 -0.07201904 66.74861079 C-0.06083304 59.46931287 -0.05534119 52.19001412 -0.05032361 44.91070974 C-0.03987734 29.94046204 -0.02154182 14.97023661 0 0 Z " fill="#B8F14D" transform="translate(588,143)"/>
<path d="M0 0 C11.88 0 23.76 0 36 0 C39.39623472 19.43559243 42.78756256 38.87202019 46.16993713 58.31002903 C47.74062068 67.3355849 49.31350712 76.36074646 50.89160156 85.38500977 C52.26720762 93.25138526 53.6386583 101.11847198 55.00514317 108.98643726 C55.72869605 113.15166264 56.45431161 117.31650462 57.18490601 121.48050117 C57.87290866 125.40213332 58.55533871 129.32469493 59.23356247 133.24802971 C59.48305075 134.68546403 59.73454862 136.12255128 59.98823929 137.55924988 C60.33528524 139.52642058 60.67429151 141.49500451 61.01293945 143.46363831 C61.20467239 144.56333734 61.39640533 145.66303637 61.59394836 146.79605961 C62 150 62 150 62 157 C53.09 157 44.18 157 35 157 C33 150 33 150 32 139 C22.1 139 12.2 139 2 139 C1.67 142.96 1.34 146.92 1 151 C0.505 153.97 0.505 153.97 0 157 C-9.24 157 -18.48 157 -28 157 C-26.87497238 144.62469618 -26.87497238 144.62469618 -25.89941406 139.22386169 C-25.68071655 137.99999252 -25.46201904 136.77612335 -25.23669434 135.51516724 C-24.99643233 134.19816392 -24.7560727 132.88117841 -24.515625 131.56420898 C-24.26054604 130.1472022 -24.00587848 128.73012132 -23.75158691 127.31297302 C-23.06589808 123.49876154 -22.37429357 119.68564546 -21.68138123 115.87274051 C-20.95540905 111.87307778 -20.23440602 107.87251901 -19.51269531 103.87208557 C-18.30213671 97.16631908 -17.08780337 90.46124479 -15.87109375 83.7565918 C-14.46385973 76.00184306 -13.06222899 68.24609765 -11.66363907 60.48978561 C-10.31623646 53.01787437 -8.96533261 45.54660056 -7.6126709 38.07563972 C-7.03745771 34.89843818 -6.46340316 31.7210305 -5.89025879 28.54345512 C-5.21678368 24.81071271 -4.54022843 21.07854154 -3.86125183 17.34679604 C-3.61226009 15.97553567 -3.36432557 14.60408286 -3.11750793 13.2324295 C-2.78139171 11.36553141 -2.44110701 9.49938521 -2.10058594 7.63328552 C-1.91107361 6.5875106 -1.72156128 5.54173567 -1.52630615 4.46427059 C-1 2 -1 2 0 0 Z M17 48 C15.69342695 56.16193289 14.38935558 64.32425984 13.08848572 72.48710346 C12.48437683 76.2773265 11.8794036 80.06740736 11.27246094 83.85717773 C10.68688067 87.51376352 10.10356318 91.17070369 9.52182007 94.82790184 C9.29935439 96.22388792 9.07607043 97.61974384 8.85195923 99.01546669 C8.5384702 100.96870609 8.22814638 102.92245271 7.91796875 104.8762207 C7.65149536 106.5450103 7.65149536 106.5450103 7.37963867 108.24751282 C6.9316839 111.03222012 6.9316839 111.03222012 7 114 C13.6 114 20.2 114 27 114 C26.37764546 105.60236276 25.4153061 97.33911124 24.15234375 89.015625 C23.97619034 87.83401794 23.80003693 86.65241089 23.61854553 85.43499756 C23.06180703 81.70611419 22.49974761 77.97805625 21.9375 74.25 C21.55628675 71.70317794 21.17542408 69.15630339 20.79492188 66.609375 C19.86733032 60.40563772 18.93538324 54.20256699 18 48 C17.67 48 17.34 48 17 48 Z " fill="#B8F14C" transform="translate(1318,143)"/>
<path d="M0 0 C24.75 0 49.5 0 75 0 C75 8.91 75 17.82 75 27 C59.49 27 43.98 27 28 27 C28 38.55 28 50.1 28 62 C43.51 62 59.02 62 75 62 C75 70.91 75 79.82 75 89 C59.49 89 43.98 89 28 89 C28 101.87 28 114.74 28 128 C43.51 128 59.02 128 75 128 C75 137.24 75 146.48 75 156 C50.25 156 25.5 156 0 156 C0 104.52 0 53.04 0 0 Z " fill="#B8F04C" transform="translate(873,143)"/>
<path d="M0 0 C29.04 0 58.08 0 88 0 C88 8.91 88 17.82 88 27 C78.1 27 68.2 27 58 27 C58 69.9 58 112.8 58 157 C48.76 157 39.52 157 30 157 C30 114.1 30 71.2 30 27 C20.1 27 10.2 27 0 27 C0 18.09 0 9.18 0 0 Z " fill="#B7F04C" transform="translate(959,143)"/>
<path d="M0 0 C5.28 0 10.56 0 16 0 C16 42.57 16 85.14 16 129 C31.51 129 47.02 129 63 129 C63 138.24 63 147.48 63 157 C42.21 157 21.42 157 0 157 C0 105.19 0 53.38 0 0 Z " fill="#B7F14C" transform="translate(796,143)"/>
<path d="M0 0 C5.032477 3.38047847 8.97322087 7.78876222 12.875 12.3828125 C18.82467599 19.23532004 25.42929168 25.49500036 31.875 31.875 C34.52108606 34.4945367 37.16386413 37.11734671 39.8046875 39.7421875 C40.41190643 40.34110809 41.01912537 40.94002869 41.64474487 41.55709839 C46.82107315 46.70278037 46.82107315 46.70278037 47.5 51.625 C47.44252055 55.34126837 46.54335165 56.98249423 44.0402832 59.69360352 C43.40216705 60.38809601 42.7640509 61.0825885 42.1065979 61.79812622 C38.40129416 65.6710111 34.65023283 69.49205509 30.85546875 73.27734375 C30.00447098 74.12929825 29.15347321 74.98125275 28.27668762 75.85902405 C26.49208294 77.644305 24.70623176 79.42834072 22.91918945 81.21118164 C20.17477838 83.95019661 17.43579568 86.69455952 14.69726562 89.43945312 C12.95865423 91.17740442 11.21973305 92.91504586 9.48046875 94.65234375 C8.65967331 95.47516342 7.83887787 96.29798309 6.99320984 97.14573669 C6.23514542 97.90064896 5.47708099 98.65556122 4.69604492 99.43334961 C4.02876877 100.09983017 3.36149261 100.76631073 2.67399597 101.45298767 C-0.33187201 104.23084073 -2.91064787 104.32978956 -6.9609375 104.29296875 C-10.13134567 103.83745033 -11.8192402 102.24684343 -14 100 C-15.84149421 96.31701158 -15.84154387 92.99613329 -15 89 C-13.44702148 86.80322266 -13.44702148 86.80322266 -11.30859375 84.5390625 C-10.49197266 83.67055664 -9.67535156 82.80205078 -8.83398438 81.90722656 C-7.89168338 80.93585564 -6.94688557 79.96690245 -6 79 C-5.48711426 78.47547241 -4.97422852 77.95094482 -4.44580078 77.41052246 C-0.47520621 73.36618828 3.54029011 69.36789108 7.5625 65.375 C8.77432426 64.1682054 9.98591434 62.96117561 11.19726562 61.75390625 C14.12882471 58.83322593 17.06351021 55.91572253 20 53 C18.67653811 50.06407383 17.24780174 48.00502534 14.95898438 45.74780273 C14.34494751 45.13714462 13.73091064 44.52648651 13.0982666 43.89732361 C12.10603088 42.92527733 12.10603088 42.92527733 11.09375 41.93359375 C10.41324585 41.25829117 9.7327417 40.58298859 9.03161621 39.88722229 C6.85910755 37.73250857 4.68003021 35.58460142 2.5 33.4375 C0.32084563 31.28597548 -1.85683198 29.13300808 -4.03161621 26.97706604 C-5.3844172 25.63650737 -6.73988264 24.29863101 -8.0982666 22.96372986 C-8.71230347 22.35622391 -9.32634033 21.74871796 -9.95898438 21.12280273 C-10.49922241 20.59081772 -11.03946045 20.0588327 -11.59606934 19.51072693 C-15.1036366 15.73634087 -15.42416828 13.1407771 -15.328125 8.2265625 C-14.84491788 4.94765703 -13.37190247 3.23237879 -11 1 C-7.35142623 -0.82428688 -3.95330836 -0.92524238 0 0 Z " fill="#B8F14C" transform="translate(162,125)"/>
</svg>
